<svg id="visual" viewBox="0 0 900 600" width="900" height="600" xmlns="http://www.w3.org/2000/svg" xmlns:xlink="http://www.w3.org/1999/xlink" version="1.1"><g><g transform="translate(190 410)"><path d="M0 -74.3L64.4 -37.2L64.4 37.2L0 74.3L-64.4 37.2L-64.4 -37.2Z" fill="none" stroke="#000000" stroke-width="1"></path></g><g transform="translate(618 81)"><path d="M0 -74L64.1 -37L64.1 37L0 74L-64.1 37L-64.1 -37Z" fill="none" stroke="#000000" stroke-width="1"></path></g><g transform="translate(509 242)"><path d="M0 -74L64.1 -37L64.1 37L0 74L-64.1 37L-64.1 -37Z" stroke="#000000" fill="none" stroke-width="1"></path></g><g transform="translate(392 99)"><path d="M0 -74L64.1 -37L64.1 37L0 74L-64.1 37L-64.1 -37Z" stroke="#000000" fill="none" stroke-width="1"></path></g><g transform="translate(693 373)"><path d="M0 -74L64.1 -37L64.1 37L0 74L-64.1 37L-64.1 -37Z" stroke="#000000" fill="none" stroke-width="1"></path></g><g transform="translate(215 104)"><path d="M0 -74L64.1 -37L64.1 37L0 74L-64.1 37L-64.1 -37Z" stroke="#000000" fill="none" stroke-width="1"></path></g><g transform="translate(445 485)"><path d="M0 -74L64.1 -37L64.1 37L0 74L-64.1 37L-64.1 -37Z" stroke="#000000" fill="none" stroke-width="1"></path></g><g transform="translate(725 208)"><path d="M0 -74L64.1 -37L64.1 37L0 74L-64.1 37L-64.1 -37Z" stroke="#000000" fill="none" stroke-width="1"></path></g><g transform="translate(348 305)"><path d="M0 -74L64.1 -37L64.1 37L0 74L-64.1 37L-64.1 -37Z" stroke="#000000" fill="none" stroke-width="1"></path></g><g transform="translate(109 282)"><path d="M0 -74L64.1 -37L64.1 37L0 74L-64.1 37L-64.1 -37Z" stroke="#000000" fill="none" stroke-width="1"></path></g></g></svg>