<svg width="332" height="325" viewBox="0 0 332 325" fill="none" xmlns="http://www.w3.org/2000/svg">
<g filter="url(#filter0_d_3_25)">
<rect x="159" y="162.782" width="110" height="110" rx="21" transform="rotate(-45 159 162.782)" fill="#004D99"/>
</g>
<g filter="url(#filter1_d_3_25)">
<rect x="81" y="246.782" width="110" height="110" rx="21" transform="rotate(-45 81 246.782)" fill="#94C4F5"/>
</g>
<g filter="url(#filter2_d_3_25)">
<rect x="3" y="162.782" width="110" height="110" rx="21" transform="rotate(-45 3 162.782)" fill="white"/>
</g>
<g filter="url(#filter3_d_3_25)">
<rect x="81" y="79.7817" width="110" height="110" rx="21" transform="rotate(-45 81 79.7817)" fill="#6AAAEB"/>
</g>
<line x1="1.29289" y1="134.293" x2="134.293" y2="1.29289" stroke="#004D99" stroke-width="10"/>
<line x1="331.293" y1="135.707" x2="198.293" y2="2.70711" stroke="#94C4F5" stroke-width="10"/>
<line x1="2.70711" y1="191.293" x2="135.707" y2="324.293" stroke="#94C4F5" stroke-width="10"/>
<line x1="198.293" y1="324.293" x2="331.293" y2="191.293" stroke="#004D99" stroke-width="10"/>
<path d="M53.7479 169.477V165.386L92.8672 143.813V150.077L60.7791 167.4L61.0987 166.825V168.039L60.7791 167.464L92.8672 184.786V191.05L53.7479 169.477Z" fill="#004D99"/>
<path d="M235.764 123.477L214.67 201.844H209.333L230.427 123.477H235.764ZM286.98 168.477L247.861 190.05V183.786L279.949 166.464L279.662 167.039V165.825L279.949 166.4L247.861 149.077V142.813L286.98 164.386V168.477Z" fill="#94C4F5"/>
<path d="M127.83 63.6364H131.665L144.857 95.3125H145.177L158.369 63.6364H162.205V100H159.08V70.6499H158.795L146.526 100H143.508L131.239 70.6499H130.955V100H127.83V63.6364ZM168.463 63.6364H172.299L183.076 80.8949H183.396L194.174 63.6364H198.009L184.887 84.2507V100H181.585V84.2507L168.463 63.6364Z" fill="#004D99"/>
<path d="M147.15 228.636V265H143.83V228.636H147.15ZM154.616 231.619V228.636H180.983V231.619H169.46V265H166.14V231.619H154.616Z" fill="#004D99"/>
<defs>
<filter id="filter0_d_3_25" x="163.698" y="93.6985" width="146.167" height="146.167" filterUnits="userSpaceOnUse" color-interpolation-filters="sRGB">
<feFlood flood-opacity="0" result="BackgroundImageFix"/>
<feColorMatrix in="SourceAlpha" type="matrix" values="0 0 0 0 0 0 0 0 0 0 0 0 0 0 0 0 0 0 127 0" result="hardAlpha"/>
<feOffset dy="4"/>
<feGaussianBlur stdDeviation="2"/>
<feComposite in2="hardAlpha" operator="out"/>
<feColorMatrix type="matrix" values="0 0 0 0 0 0 0 0 0 0 0 0 0 0 0 0 0 0 0.25 0"/>
<feBlend mode="normal" in2="BackgroundImageFix" result="effect1_dropShadow_3_25"/>
<feBlend mode="normal" in="SourceGraphic" in2="effect1_dropShadow_3_25" result="shape"/>
</filter>
<filter id="filter1_d_3_25" x="85.6985" y="177.698" width="146.167" height="146.167" filterUnits="userSpaceOnUse" color-interpolation-filters="sRGB">
<feFlood flood-opacity="0" result="BackgroundImageFix"/>
<feColorMatrix in="SourceAlpha" type="matrix" values="0 0 0 0 0 0 0 0 0 0 0 0 0 0 0 0 0 0 127 0" result="hardAlpha"/>
<feOffset dy="4"/>
<feGaussianBlur stdDeviation="2"/>
<feComposite in2="hardAlpha" operator="out"/>
<feColorMatrix type="matrix" values="0 0 0 0 0 0 0 0 0 0 0 0 0 0 0 0 0 0 0.25 0"/>
<feBlend mode="normal" in2="BackgroundImageFix" result="effect1_dropShadow_3_25"/>
<feBlend mode="normal" in="SourceGraphic" in2="effect1_dropShadow_3_25" result="shape"/>
</filter>
<filter id="filter2_d_3_25" x="7.69849" y="93.6985" width="146.167" height="146.167" filterUnits="userSpaceOnUse" color-interpolation-filters="sRGB">
<feFlood flood-opacity="0" result="BackgroundImageFix"/>
<feColorMatrix in="SourceAlpha" type="matrix" values="0 0 0 0 0 0 0 0 0 0 0 0 0 0 0 0 0 0 127 0" result="hardAlpha"/>
<feOffset dy="4"/>
<feGaussianBlur stdDeviation="2"/>
<feComposite in2="hardAlpha" operator="out"/>
<feColorMatrix type="matrix" values="0 0 0 0 0 0 0 0 0 0 0 0 0 0 0 0 0 0 0.25 0"/>
<feBlend mode="normal" in2="BackgroundImageFix" result="effect1_dropShadow_3_25"/>
<feBlend mode="normal" in="SourceGraphic" in2="effect1_dropShadow_3_25" result="shape"/>
</filter>
<filter id="filter3_d_3_25" x="85.6985" y="10.6985" width="146.167" height="146.167" filterUnits="userSpaceOnUse" color-interpolation-filters="sRGB">
<feFlood flood-opacity="0" result="BackgroundImageFix"/>
<feColorMatrix in="SourceAlpha" type="matrix" values="0 0 0 0 0 0 0 0 0 0 0 0 0 0 0 0 0 0 127 0" result="hardAlpha"/>
<feOffset dy="4"/>
<feGaussianBlur stdDeviation="2"/>
<feComposite in2="hardAlpha" operator="out"/>
<feColorMatrix type="matrix" values="0 0 0 0 0 0 0 0 0 0 0 0 0 0 0 0 0 0 0.25 0"/>
<feBlend mode="normal" in2="BackgroundImageFix" result="effect1_dropShadow_3_25"/>
<feBlend mode="normal" in="SourceGraphic" in2="effect1_dropShadow_3_25" result="shape"/>
</filter>
</defs>
</svg>
